<svg id="visual" viewBox="0 0 900 600" width="900" height="600" xmlns="http://www.w3.org/2000/svg" xmlns:xlink="http://www.w3.org/1999/xlink" version="1.1"><rect x="0" y="0" width="900" height="600" fill="#102E4A"></rect><defs><linearGradient id="grad1_0" x1="33.3%" y1="0%" x2="100%" y2="100%"><stop offset="20%" stop-color="#102e4a" stop-opacity="1"></stop><stop offset="80%" stop-color="#102e4a" stop-opacity="1"></stop></linearGradient></defs><defs><linearGradient id="grad2_0" x1="0%" y1="0%" x2="66.7%" y2="100%"><stop offset="20%" stop-color="#102e4a" stop-opacity="1"></stop><stop offset="80%" stop-color="#102e4a" stop-opacity="1"></stop></linearGradient></defs><g transform="translate(900, 0)"><path d="M0 216.3C-41.2 212.6 -82.5 209 -108.2 187.3C-133.8 165.7 -143.9 126.2 -159.3 92C-174.8 57.8 -195.6 28.9 -216.3 0L0 0Z" fill="#715AFF"></path></g><g transform="translate(0, 600)"><path d="M0 -216.3C27 -192.3 54.1 -168.3 88.5 -153.3C122.9 -138.3 164.8 -132.2 187.3 -108.2C209.9 -84.1 213.1 -42.1 216.3 0L0 0Z" fill="#715AFF"></path></g></svg>